<svg width="20" height="20" viewBox="0 0 20 20" fill="none" xmlns="http://www.w3.org/2000/svg">
<path d="M15.8333 9.16667V10.6298C15.8333 11.2928 16.0967 11.9288 16.5656 12.3976L17.0682 12.9003C17.3447 13.1768 17.5 13.5517 17.5 13.9426C17.5 14.7567 16.84 15.4167 16.0259 15.4167H3.97406C3.15996 15.4167 2.5 14.7567 2.5 13.9426C2.5 13.5517 2.6553 13.1768 2.93174 12.9003L3.43443 12.3976C3.90327 11.9288 4.16667 11.2928 4.16667 10.6298V8.33333C4.16667 5.11168 6.77834 2.5 10 2.5" stroke="#344054" stroke-width="1.25" stroke-linecap="round" stroke-linejoin="round"/>
<path d="M12.9167 15.4166C12.9167 17.0275 11.6108 18.3333 10 18.3333C8.38918 18.3333 7.08334 17.0275 7.08334 15.4166" stroke="#344054" stroke-width="1.25" stroke-linecap="round" stroke-linejoin="round"/>
<path d="M17.5 4.16663C17.5 2.78592 16.3807 1.66663 15 1.66663C13.6192 1.66663 12.5 2.78592 12.5 4.16663C12.5 5.54733 13.6192 6.66663 15 6.66663C16.3807 6.66663 17.5 5.54733 17.5 4.16663Z" fill="#F04438" stroke="#F04438" stroke-width="1.25" stroke-linecap="round" stroke-linejoin="round"/>
</svg>
